<svg width="105" height="59" viewBox="0 0 105 59" fill="none" xmlns="http://www.w3.org/2000/svg">
<path d="M28.8597 16.1625C28.4065 16.0883 28.0831 16.1135 27.7624 16.1095C27.5186 16.1056 27.2747 16.1215 27.0309 16.1122C26.5286 16.0936 26.306 15.8869 26.2199 15.382C26.1576 15.0149 26.1973 14.6504 26.2782 14.2926C26.3418 14.0077 26.5432 13.8394 26.8348 13.8076C27.0163 13.7877 27.2005 13.7917 27.3821 13.793C28.5616 13.793 29.741 13.7917 30.9192 13.801C31.2001 13.8036 31.4466 13.7506 31.6189 13.5134C31.9674 13.0323 32.4631 12.8296 33.0303 12.7726C33.2927 12.7461 33.5577 12.7355 33.8214 12.7341C34.9598 12.7315 36.0982 12.7355 37.2379 12.7368C37.3598 12.7368 37.4831 12.7408 37.6037 12.7302C37.8594 12.7076 37.9442 12.5446 37.8263 12.3008C37.7733 12.1908 37.707 12.0888 37.6461 11.9827C36.7528 10.4335 35.849 8.89095 34.9744 7.33115C34.7464 6.92562 34.4522 6.69503 34.0083 6.58239C33.4782 6.44854 32.9627 6.2577 32.4392 6.09602C32.2656 6.04169 32.088 5.99796 31.9118 5.95157C31.4625 5.83098 31.0663 5.95688 30.7151 6.23518C30.5574 6.36107 30.4142 6.5095 30.283 6.66323C29.692 7.35103 28.9366 7.69294 28.0407 7.73005C26.42 7.79763 25.1265 7.192 24.3234 5.76074C23.1241 3.62445 24.1127 0.991203 26.6188 0.161604C28.4834 -0.455958 30.9549 0.751335 31.3976 2.97774C31.4453 3.21628 31.4691 3.46013 31.5036 3.70132C31.5698 4.16913 31.709 4.33081 32.1755 4.43948C32.5108 4.51766 32.8527 4.56803 33.1893 4.64091C34.6497 4.95897 35.7801 5.76339 36.6362 6.97466C37.0007 7.4915 37.2922 8.04943 37.5374 8.63121C37.9018 9.49659 38.4081 10.2825 38.9196 11.0657C38.9408 11.0975 38.9806 11.1187 39.0362 11.1664C41.7782 8.31712 45.0992 6.74937 49.0922 6.72286C53.0626 6.69636 56.3982 8.19255 59.2037 11.0299C59.2938 10.9093 59.3694 10.8218 59.4317 10.7251C59.922 9.97633 60.3819 9.21431 60.7145 8.37544C60.9782 7.71282 61.3639 7.11116 61.825 6.56251C62.7514 5.45991 63.9388 4.81054 65.3449 4.54417C65.5649 4.50309 65.7835 4.45671 66.0062 4.43418C66.3693 4.39707 66.5376 4.17045 66.6105 3.84577C66.637 3.72782 66.6423 3.60458 66.6529 3.48266C66.8543 1.18602 68.8197 0.082093 70.3477 0.00390391C71.9896 -0.0795861 73.7416 1.18601 74.2001 2.97111C74.6838 4.85163 73.6289 7.192 71.1441 7.66378C69.7553 7.92751 68.5294 7.51271 67.5713 6.42866C67.5169 6.3677 67.4626 6.30674 67.4175 6.23915C67.1485 5.8376 66.7669 5.77664 66.3428 5.90122C65.7398 6.07747 65.1408 6.26963 64.5444 6.46577C63.903 6.67648 63.4061 7.08598 63.031 7.64125C62.815 7.96064 62.6109 8.28929 62.4161 8.62325C61.7628 9.74838 61.1174 10.8762 60.4693 12.0039C60.419 12.0914 60.3726 12.1815 60.3129 12.2928C60.3978 12.4267 60.4826 12.5592 60.5793 12.7103C60.7649 12.7196 60.9438 12.7368 61.124 12.7368C62.1603 12.7381 63.198 12.7275 64.2343 12.7355C64.5776 12.7381 64.9221 12.7766 65.2654 12.8123C65.7729 12.8653 66.1997 13.0906 66.5177 13.4895C66.7139 13.736 66.9391 13.8129 67.2559 13.8063C68.495 13.7824 69.7354 13.7917 70.9758 13.789C71.0368 13.789 71.0977 13.789 71.1587 13.7943C71.6331 13.8288 71.8584 14.0342 71.8955 14.5139C71.9194 14.8161 71.9194 15.1249 71.8929 15.427C71.8545 15.8617 71.6159 16.083 71.1812 16.1109C70.8976 16.1281 70.6127 16.1162 70.3278 16.1188C70.0283 16.1215 69.7367 16.1625 69.4293 16.3189C69.6771 16.576 69.9673 16.7218 70.2271 16.9073C70.3755 17.0133 70.5385 17.1035 70.6723 17.2254C70.9228 17.4533 70.9308 17.7939 70.7094 18.0431C70.5146 18.2617 70.1051 18.2843 69.8825 18.0762C69.7791 17.9794 69.6956 17.8628 69.6108 17.7489C69.3749 17.4321 69.0741 17.1909 68.7269 17.0147C68.1809 16.7364 67.5951 16.5734 66.9948 16.4581C66.7801 16.417 66.5999 16.4554 66.4263 16.5919C65.822 17.0677 65.1103 17.2042 64.3642 17.1989C64.0594 17.1962 63.7559 17.1591 63.4511 17.1472C63.2523 17.1392 63.0522 17.1459 62.8123 17.1459C62.8349 17.3089 62.8402 17.4454 62.8733 17.5752C63.2245 18.9469 63.3173 20.3397 63.2497 21.7484C63.1675 23.4288 62.7805 25.0416 62.1935 26.612C61.5706 28.2765 60.7556 29.8456 59.7245 31.2888C58.496 33.009 57.245 34.7146 55.9489 36.383C53.8524 39.0786 51.7108 41.7397 49.5865 44.414C49.4751 44.5545 49.3506 44.683 49.2141 44.8367C48.9861 44.7148 48.8722 44.5174 48.7383 44.349C47.1759 42.397 45.6107 40.4462 44.0615 38.4849C42.348 36.3154 40.6517 34.1315 39.0482 31.8785C37.8289 30.165 36.8072 28.3455 36.0889 26.3629C35.4965 24.7262 35.1546 23.0392 35.0963 21.3005C35.0552 20.076 35.1957 18.866 35.4793 17.6733C35.5031 17.5752 35.5257 17.4759 35.5416 17.3765C35.5469 17.3394 35.531 17.2996 35.523 17.2585C35.4435 17.1366 35.3123 17.1604 35.1957 17.1578C34.708 17.1485 34.2203 17.1472 33.7326 17.1406C33.5299 17.1379 33.3258 17.1326 33.123 17.1273C32.6618 17.1154 32.2378 16.9895 31.8919 16.6754C31.6414 16.4475 31.3605 16.3984 31.0437 16.47C30.4686 16.5999 29.9053 16.7669 29.3766 17.0359C28.9697 17.2426 28.6384 17.5368 28.3959 17.9264C28.2514 18.1584 28.046 18.2511 27.7757 18.2206C27.5517 18.1955 27.4033 18.0802 27.3132 17.8761C27.2231 17.668 27.2469 17.4719 27.3914 17.3062C27.4828 17.2015 27.6021 17.118 27.7174 17.0372C28.001 16.8397 28.2912 16.6529 28.5748 16.4554C28.6503 16.3958 28.7087 16.3163 28.8597 16.1625ZM49.2074 37.9177C49.393 37.6977 49.5401 37.5333 49.6766 37.3584C51.4988 35.0419 53.3289 32.732 55.1352 30.4036C55.7448 29.6177 56.32 28.8013 56.8567 27.9638C58.0441 26.1071 58.8287 24.1047 58.9877 21.877C59.0593 20.8698 58.9652 19.8891 58.7333 18.9177C58.2443 16.8768 57.1682 15.1713 55.6163 13.7864C53.2163 11.6422 50.4055 10.8841 47.2434 11.499C45.0886 11.9191 43.3194 13.0177 41.8895 14.6663C39.8062 17.0664 38.9965 19.8427 39.5093 22.9835C39.6936 24.1113 40.0646 25.1848 40.5523 26.2211C41.0731 27.3303 41.7278 28.3561 42.4501 29.3407C44.5426 32.194 46.7624 34.9465 48.9795 37.703C49.0272 37.7639 49.0935 37.8116 49.2074 37.9177Z" fill="black"/>
<path d="M49.2074 37.9177C49.0922 37.8116 49.0259 37.7639 48.9782 37.7043C46.7624 34.9478 44.5413 32.1953 42.4487 29.342C41.7265 28.3574 41.0718 27.3303 40.551 26.2224C40.0646 25.1874 39.6922 24.1127 39.508 22.9849C38.9952 19.8441 39.8049 17.0677 41.8882 14.6677C43.3194 13.0191 45.0873 11.9205 47.2421 11.5004C50.4041 10.8841 53.2136 11.6435 55.615 13.7877C57.1655 15.1726 58.2429 16.8782 58.7319 18.919C58.9639 19.8891 59.0593 20.8711 58.9864 21.8783C58.8274 24.106 58.0428 26.1085 56.8554 27.9651C56.32 28.8027 55.7435 29.619 55.1339 30.4049C53.3289 32.7347 51.4975 35.0432 49.6753 37.3597C49.5401 37.532 49.393 37.6977 49.2074 37.9177ZM44.6433 21.9075C44.5506 23.886 46.1819 26.3086 49.0444 26.3351C51.5876 26.3589 53.5131 24.3061 53.5105 21.8955C53.5078 19.7301 51.899 17.5487 49.0325 17.448C46.0693 17.5845 44.5506 19.9766 44.6433 21.9075Z" fill="#FAB417"/>
<path d="M44.6433 21.9075C44.5506 19.9779 46.0693 17.5845 49.0325 17.448C51.899 17.5487 53.5065 19.7301 53.5105 21.8955C53.5145 24.3075 51.5876 26.3589 49.0444 26.3351C46.1819 26.3086 44.5492 23.886 44.6433 21.9075Z" fill="black"/>
<path d="M0.00132451 42.0762H10.2918V44.7731H3.34358V49.047H8.66706V51.6975H3.34358V58.7411H0V42.0762H0.00132451Z" fill="black"/>
<path d="M15.9943 58.7411H12.6507V45.5139H15.9943V47.5667C16.8305 46.2057 18.2141 45.3231 20.0535 45.3231V48.8323H19.1696C17.1884 48.8323 15.9943 49.5957 15.9943 52.1507V58.7411Z" fill="black"/>
<path d="M28.0712 58.9558C24.228 58.9558 21.4344 56.2815 21.4344 52.1269C21.4344 47.9484 24.1564 45.2992 28.0712 45.2992C31.8905 45.2992 34.5887 47.902 34.5887 51.8419C34.5887 52.2713 34.5649 52.7007 34.4933 53.1301H24.8244C24.9913 55.0888 26.3285 56.1861 27.9996 56.1861C29.4322 56.1861 30.2194 55.4704 30.6501 54.5865H34.2548C33.5391 57.0223 31.3419 58.9558 28.0712 58.9558ZM24.8495 50.8851H31.1272C31.0795 49.1424 29.6959 48.0438 27.9758 48.0438C26.3775 48.0451 25.1119 49.0709 24.8495 50.8851Z" fill="black"/>
<path d="M42.7973 58.9558C38.9541 58.9558 36.1605 56.2815 36.1605 52.1269C36.1605 47.9484 38.8825 45.2992 42.7973 45.2992C46.6166 45.2992 49.3148 47.902 49.3148 51.8419C49.3148 52.2713 49.2909 52.7007 49.2194 53.1301H39.5504C39.7174 55.0888 41.0546 56.1861 42.7257 56.1861C44.157 56.1861 44.9455 55.4704 45.3762 54.5865H48.9808C48.2652 57.0223 46.0679 58.9558 42.7973 58.9558ZM39.5743 50.8851H45.8533C45.8055 49.1424 44.422 48.0438 42.7018 48.0438C41.1023 48.0451 39.838 49.0709 39.5743 50.8851Z" fill="black"/>
<path d="M56.9508 45.2992C58.6935 45.2992 60.3633 46.1116 61.2724 47.352V41.0744H64.6624V58.7411H61.2724V56.7824C60.4852 58.0003 59.0036 58.9558 56.927 58.9558C53.5609 58.9558 50.8865 56.2099 50.8865 52.0792C50.8865 47.9484 53.5609 45.2992 56.9508 45.2992ZM57.7857 48.236C55.9953 48.236 54.3003 49.5731 54.3003 52.0792C54.3003 54.5852 55.994 56.0191 57.7857 56.0191C59.6251 56.0191 61.2949 54.6342 61.2949 52.1269C61.2949 49.6195 59.6251 48.236 57.7857 48.236Z" fill="black"/>
<path d="M73.8012 58.9558C69.9806 58.9558 67.0929 56.2815 67.0929 52.1269C67.0929 47.9484 70.0773 45.2992 73.8966 45.2992C77.7173 45.2992 80.7017 47.9497 80.7017 52.1269C80.7004 56.2815 77.6444 58.9558 73.8012 58.9558ZM73.8012 56.0416C75.5678 56.0416 77.2628 54.7535 77.2628 52.1269C77.2628 49.4764 75.6142 48.2121 73.8476 48.2121C72.0811 48.2121 70.4815 49.4777 70.4815 52.1269C70.4828 54.7535 72.0108 56.0416 73.8012 56.0416Z" fill="black"/>
<path d="M101.658 51.4351C101.658 49.3333 100.488 48.236 98.721 48.236C96.9306 48.236 95.7591 49.3333 95.7591 51.4351V58.7411H92.4182V51.4351C92.4182 49.3333 91.248 48.236 89.4814 48.236C87.6659 48.236 86.497 49.3333 86.497 51.4351V58.7411H83.1548V45.5139H86.4983V47.1135C87.3332 46.0149 88.742 45.3231 90.3892 45.3231C92.442 45.3231 94.1383 46.2057 95.0448 47.8543C95.9036 46.3488 97.6476 45.3231 99.5811 45.3231C102.756 45.3231 105 47.3295 105 50.9819V58.7411H101.659V51.4351H101.658Z" fill="black"/>
</svg>
